<?xml version="1.0" standalone="no"?>
<!DOCTYPE svg PUBLIC "-//W3C//DTD SVG 20010904//EN"
 "http://www.w3.org/TR/2001/REC-SVG-20010904/DTD/svg10.dtd">
<svg version="1.0" xmlns="http://www.w3.org/2000/svg"
 width="512.000000pt" height="512.000000pt" viewBox="0 0 512.000000 512.000000"
 preserveAspectRatio="xMidYMid meet">
<metadata>
Created by potrace 1.14, written by Peter Selinger 2001-2017
</metadata>
<g transform="translate(0.000000,512.000000) scale(0.100000,-0.100000)"
fill="#000000" stroke="none">
<path d="M1059 5116 c-2 -2 -26 -6 -54 -9 -158 -17 -313 -70 -492 -171 -23
-13 -40 -26 -36 -30 3 -3 0 -6 -8 -6 -23 0 -157 -128 -205 -196 -43 -60 -79
-132 -93 -186 -1 -4 -7 -22 -13 -40 -8 -23 -12 -609 -13 -2003 -2 -2152 -5
-2028 57 -2155 37 -76 36 -75 111 -151 77 -78 175 -133 282 -157 17 -4 777 -7
1690 -7 1623 0 1661 0 1715 20 30 10 57 20 60 20 77 20 216 143 271 240 23 42
41 59 77 76 47 23 192 158 192 179 0 7 9 23 19 36 20 26 60 134 67 182 2 15 4
59 4 97 1 67 2 71 33 92 123 85 215 221 243 363 7 35 11 3102 4 3173 -2 20 -7
37 -10 37 -3 0 -7 14 -8 31 -1 18 -6 37 -9 43 -4 6 -9 20 -10 30 -2 11 -17 44
-33 75 -17 30 -30 61 -30 68 0 7 -4 13 -10 13 -5 0 -16 12 -24 28 -24 43 -164
182 -185 182 -5 0 -11 3 -13 8 -6 14 -140 75 -212 96 -70 20 -84 20 -1717 23
-905 2 -1647 1 -1650 -1z"/>
</g>
</svg>
